Coordinates
version=1
nRows=30
nColumns=33
inDegrees=yes

Units are S.I. units (second, meters, Newtons, ...)
Angles are in degrees.

endheader
time	ground_thorax_rot_x	ground_thorax_rot_y	ground_thorax_rot_z	ground_thorax_tx	ground_thorax_ty	ground_thorax_tz	clav_prot_r	clav_elev_r	scapula_abduction_r	scapula_elevation_r	scapula_upward_rot_r	scapula_winging_r	shoulder_elv_r	plane_of_elev_r	axial_rot_r	elbow_flexion_r	pro_sup_r	wrist_flex_r	wrist_dev_r	clav_prot_l	clav_elev_l	scapula_abduction_l	scapula_elevation_l	scapula_upward_rot_l	scapula_winging_l	shoulder_elv_l	plane_of_elev_l	axial_rot_l	elbow_flexion_l	pro_sup_l	wrist_flex_l	wrist_dev_l	
3.7900	3.038959	1.813009	11.415146	-0.120906	1.036916	0.026627	6.835904	12.633486	21.877800	8.375779	22.246360	-11.673265	10.337894	-73.144402	58.354170	51.053771	-28.488396	69.999999	-25.000000	9.400426	-4.977106	-13.886161	-21.374231	-44.563696	-1.858759	64.016954	-39.858350	-5.556237	69.249109	24.409815	-0.279328	-25.000000	
3.8000	2.877978	2.043005	11.362233	-0.120825	1.036932	0.026800	6.341054	12.357054	21.372993	8.019356	22.662878	-11.545039	10.098770	-73.259366	58.445674	50.881992	-28.309776	69.999998	-25.000000	9.545510	-4.892096	-14.100567	-21.390976	-44.431368	-1.753779	63.863874	-39.688868	-5.530315	68.946843	24.500946	-1.198536	-24.999999	
3.8100	2.708013	2.284570	11.304992	-0.120712	1.036982	0.026988	5.821805	12.067942	20.834361	7.649532	23.089876	-11.406487	9.868881	-73.373594	58.523102	50.711406	-28.127754	69.999996	-25.000000	9.700661	-4.810959	-14.328374	-21.397749	-44.286008	-1.641320	63.713958	-39.499710	-5.488811	68.619206	24.604072	-2.172620	-24.999999	
3.8200	2.624237	2.442174	11.290249	-0.120702	1.036925	0.027193	5.533429	11.885721	20.499788	7.442629	23.277004	-11.312321	9.801634	-73.379769	58.498715	50.676807	-28.046216	69.999993	-25.000000	9.784496	-4.821957	-14.450122	-21.345851	-44.201247	-1.574666	63.643569	-39.350590	-5.424152	68.367816	24.694710	-2.748255	-24.999998	
3.8300	2.582157	2.555803	11.297994	-0.120730	1.036801	0.027404	5.367706	11.763892	20.275443	7.324152	23.340245	-11.242813	9.833410	-73.328375	58.418361	50.731342	-28.014747	69.999987	-25.000000	9.834798	-4.880680	-14.521791	-21.262016	-44.144685	-1.529494	63.623356	-39.212607	-5.340464	68.174094	24.777775	-3.115501	-24.999997	
3.8400	2.572832	2.632073	11.323548	-0.120780	1.036623	0.027619	5.305124	11.693405	20.143905	7.280399	23.299652	-11.194044	9.956428	-73.229769	58.293615	50.868379	-28.022034	69.999977	-25.000000	9.860599	-4.980173	-14.558255	-21.151055	-44.112879	-1.499475	63.647766	-39.080028	-5.238479	68.033664	24.852378	-3.310329	-24.999995	
3.8500	2.573798	2.691452	11.348683	-0.120822	1.036407	0.027829	5.292265	11.651169	20.062349	7.273171	23.216427	-11.157836	10.142851	-73.115287	58.156967	51.074710	-28.036004	69.999958	-25.000000	9.885041	-5.097721	-14.596667	-21.028919	-44.094545	-1.469275	63.701530	-38.938060	-5.123498	67.943452	24.913873	-3.425553	-24.999992	
3.8600	2.568637	2.751552	11.362896	-0.120827	1.036190	0.028035	5.284960	11.612989	19.984161	7.271653	23.126153	-11.121811	10.379163	-73.005521	58.034468	51.330057	-28.032380	69.999925	-25.000000	9.928459	-5.220683	-14.672352	-20.906236	-44.088044	-1.424613	63.767972	-38.776806	-4.994171	67.883714	24.963335	-3.549064	-24.999985	
3.8700	2.556923	2.809099	11.370841	-0.120798	1.035975	0.028229	5.286787	11.579603	19.919517	7.275011	23.032823	-11.089847	10.660400	-72.907149	57.948765	51.622677	-28.004845	69.999865	-25.000000	9.994060	-5.343661	-14.793573	-20.791757	-44.101562	-1.363707	63.841609	-38.605958	-4.860193	67.862474	24.988736	-3.671064	-24.999974	
3.8800	2.540809	2.870355	11.378753	-0.120757	1.035773	0.028415	5.307428	11.540907	19.857492	7.287632	22.897543	-11.053893	11.055108	-72.815537	57.935932	51.975809	-27.931885	69.999758	-25.000000	10.105301	-5.483195	-15.015393	-20.687807	-44.177772	-1.267863	63.917581	-38.419489	-4.701835	67.882159	24.977604	-3.815455	-24.999954	
3.8900	2.522202	2.933471	11.381056	-0.120694	1.035593	0.028596	5.343965	11.499968	19.801930	7.307913	22.732747	-11.016707	11.543143	-72.731142	57.988809	52.382893	-27.822091	69.999567	-25.000000	10.256202	-5.633032	-15.322816	-20.594539	-44.303060	-1.141992	63.995271	-38.220744	-4.527711	67.944564	24.927893	-3.971686	-24.999917	
3.9000	2.500711	2.998661	11.370093	-0.120608	1.035431	0.028771	5.394479	11.461003	19.758237	7.335173	22.550998	-10.981639	12.110974	-72.650451	58.106297	52.846856	-27.684314	69.999224	-25.000000	10.445152	-5.786526	-15.707989	-20.511739	-44.462671	-0.987300	64.076278	-38.010998	-4.345315	68.056996	24.832293	-4.129874	-24.999851	
3.9100	2.478090	3.055665	11.337405	-0.120473	1.035295	0.028934	5.446442	11.436206	19.743373	7.361914	22.405602	-10.960453	12.674541	-72.577437	58.252134	53.332756	-27.552116	69.998610	-25.000000	10.644888	-5.921175	-16.104641	-20.436861	-44.600464	-0.825323	64.159245	-37.802528	-4.189111	68.220465	24.687812	-4.246956	-24.999734	
3.9200	2.461167	3.112121	11.286133	-0.120306	1.035175	0.029095	5.498941	11.423579	19.749758	7.389182	22.288808	-10.949876	13.283164	-72.527772	58.433648	53.887110	-27.427736	69.997510	-24.999999	10.866474	-6.050500	-16.534335	-20.359791	-44.723712	-0.646436	64.239883	-37.589775	-4.051006	68.437913	24.455270	-4.304691	-24.999523	
3.9300	2.450693	3.162477	11.212084	-0.120082	1.035099	0.029252	5.541927	11.420899	19.778868	7.407268	22.224325	-10.952680	13.885357	-72.496409	58.610602	54.475951	-27.334190	69.995540	-24.999999	11.085644	-6.164602	-16.940029	-20.271110	-44.788184	-0.469129	64.316501	-37.377877	-3.940727	68.692899	24.131586	-4.268538	-24.999146	
3.9400	2.441924	3.207225	11.124817	-0.119818	1.035066	0.029409	5.577381	11.420755	19.827130	7.413876	22.200408	-10.966246	14.501759	-72.476455	58.789342	55.104851	-27.262085	69.992011	-24.999999	11.306689	-6.267532	-17.331131	-20.169437	-44.799932	-0.289877	64.389365	-37.166318	-3.844606	68.978234	23.707051	-4.134591	-24.998470	
3.9500	2.429614	3.245828	11.042168	-0.119527	1.035096	0.029550	5.609392	11.395555	19.884543	7.396542	22.184592	-10.982649	15.192072	-72.461116	59.000572	55.765686	-27.190008	69.985687	-24.999998	11.536653	-6.362826	-17.722339	-20.054502	-44.766613	-0.102871	64.437241	-36.957339	-3.737120	69.292623	23.107799	-3.848325	-24.997259	
3.9600	2.415021	3.286298	10.972302	-0.119230	1.035170	0.029696	5.642560	11.343983	19.935077	7.364167	22.147214	-10.993651	16.005482	-72.444522	59.245125	56.494937	-27.098322	69.974369	-24.999996	11.789169	-6.469634	-18.149352	-19.923330	-44.723582	0.102847	64.470413	-36.735105	-3.594275	69.617423	22.366384	-3.452323	-24.995092	
3.9700	2.395746	3.321635	10.910429	-0.118908	1.035291	0.029844	5.672549	11.274605	19.987881	7.315794	22.112621	-11.005009	16.868453	-72.409508	59.485591	57.248288	-26.995313	69.954065	-24.999993	12.042078	-6.574702	-18.565635	-19.778550	-44.646364	0.309321	64.499810	-36.497765	-3.431456	69.938812	21.543430	-2.959764	-24.991203	
3.9800	2.381335	3.348464	10.842254	-0.118531	1.035425	0.030013	5.690444	11.224019	20.053824	7.266313	22.129061	-11.026888	17.682012	-72.363023	59.642512	58.020916	-26.909883	69.917780	-24.999987	12.267945	-6.671763	-18.914854	-19.615380	-44.508082	0.494596	64.554162	-36.239203	-3.282506	70.235001	20.755396	-2.411736	-24.984255	
3.9900	2.373769	3.365852	10.772442	-0.118107	1.035564	0.030203	5.700672	11.189735	20.140359	7.214354	22.194083	-11.061241	18.448509	-72.309419	59.714418	58.816560	-26.843140	69.852544	-24.999977	12.467780	-6.767996	-19.200188	-19.428697	-44.312558	0.659571	64.632663	-35.963237	-3.150245	70.500034	19.996646	-1.786493	-24.971762	
4.0000	2.390863	3.377526	10.702267	-0.117642	1.035704	0.030422	5.714532	11.178178	20.267220	7.164823	22.308073	-11.114751	19.172498	-72.284503	59.669796	59.662210	-26.814701	69.736358	-24.999959	12.637774	-6.884525	-19.412889	-19.195987	-44.053365	0.801692	64.743011	-35.675241	-3.051781	70.714362	19.253592	-0.996121	-24.949516	
4.0100	2.417096	3.375971	10.635267	-0.117148	1.035844	0.030655	5.738717	11.176315	20.444644	7.109472	22.462371	-11.189233	19.850763	-72.261687	59.538784	60.533547	-26.807702	69.526362	-24.999926	12.783077	-7.017585	-19.566002	-18.925260	-43.741286	0.924538	64.883103	-35.382028	-2.967149	70.882140	18.513278	-0.027492	-24.909292	
4.0200	2.462728	3.360752	10.563940	-0.116620	1.035968	0.030886	5.779760	11.182248	20.677964	7.049736	22.647598	-11.285026	20.530200	-72.251843	59.332303	61.454096	-26.820111	69.155425	-24.999868	12.903904	-7.169209	-19.660186	-18.613874	-43.374866	1.028151	65.036028	-35.064587	-2.878135	70.997599	17.698621	1.258011	-24.838288	
4.0300	2.503744	3.326327	10.497133	-0.116073	1.036082	0.031100	5.834405	11.174807	20.952140	6.974601	22.844456	-11.394289	21.247772	-72.222403	59.098579	62.418588	-26.797737	68.476385	-24.999763	13.017278	-7.337296	-19.736255	-18.277349	-42.986606	1.125389	65.193040	-34.725221	-2.738882	71.071362	16.786277	2.844482	-24.708173	
4.0400	2.551818	3.276413	10.427930	-0.115508	1.036165	0.031293	5.906189	11.166625	21.274955	6.892667	23.059160	-11.520516	22.013826	-72.188963	58.807104	63.442995	-26.671459	67.310688	-24.999576	13.124338	-7.519303	-19.795370	-17.916106	-42.572285	1.217193	65.341471	-34.337524	-2.552719	71.093829	15.786618	4.755152	-24.483267	
4.0500	2.581234	3.206488	10.358161	-0.114923	1.036223	0.031467	5.978950	11.162792	21.630939	6.801978	23.312516	-11.661054	22.744130	-72.111683	58.407395	64.478827	-26.327740	65.464457	-24.999241	13.226649	-7.704218	-19.845348	-17.547388	-42.147443	1.303701	65.502491	-33.906742	-2.324460	71.078772	14.855128	6.758785	-24.057600	
4.0600	2.610308	3.127209	10.285454	-0.114320	1.036240	0.031617	6.053458	11.175802	22.020436	6.712268	23.607918	-11.816512	23.449044	-72.008686	57.873754	65.526830	-25.703395	62.880376	-24.998641	13.331800	-7.891422	-19.899146	-17.170786	-41.710526	1.391195	65.649817	-33.396324	-2.070713	71.005203	13.987155	8.789032	-23.366725	
4.0700	2.616269	3.043320	10.220461	-0.113727	1.036247	0.031742	6.128066	11.180650	22.437023	6.606933	23.932366	-11.982513	24.074755	-71.850428	57.188403	66.530688	-24.777481	59.556864	-24.997566	13.454909	-8.092822	-19.986246	-16.780103	-41.273766	1.491330	65.804449	-32.834962	-1.815095	70.871416	13.233645	10.668125	-22.352996	
4.0800	2.619650	2.960888	10.156684	-0.113150	1.036227	0.031826	6.211684	11.178226	22.895182	6.487885	24.282733	-12.162827	24.642163	-71.637081	56.401898	67.458534	-23.626319	55.734986	-24.995640	13.603093	-8.308307	-20.116269	-16.369812	-40.825537	1.610714	65.927572	-32.190921	-1.566632	70.634020	12.527531	12.376050	-21.089291	
